<svg id="Layer_1" data-name="Layer 1" xmlns="http://www.w3.org/2000/svg" viewBox="0 0 897 273.88"><defs><style>.cls-1{fill:#ed623c;}.cls-2{fill:#c4a24e;}.cls-3{fill:#c3a250;}.cls-4{fill:#c2a251;}.cls-5{fill:#c4a24f;}.cls-6{fill:#c3a24f;}.cls-7{fill:#c0a155;}.cls-8{fill:#c3a354;}.cls-9{fill:#c2a252;}.cls-10{fill:#c1a359;}.cls-11{fill:#a3956d;}.cls-12{fill:#a39670;}.cls-13{fill:#a58e51;}.cls-14{fill:#a38d55;}.cls-15{fill:#a19061;}.cls-16{fill:#fefefe;}</style></defs><title>logo_sticky</title><path class="cls-1" d="M466.13,2.3c3.4,10.83,1.89,21.58-.62,32.29A71.31,71.31,0,0,1,452.8,62.18a5.24,5.24,0,0,0-.35,1.11c5.47-2.37,7.41-7.2,10.15-11.59a10.39,10.39,0,0,1,.14,1.56,37.25,37.25,0,0,1-6.31,18.34Q447.69,85,439,98.3c-.13.2-.38.31-1,.74-6.41-13-9.65-26.4-7.1-40.78,1.59-9,6.65-16.13,12.75-22.7A180.92,180.92,0,0,0,456.91,20c2.92-3.95,5-8.55,7.24-13,.7-1.39.64-3.16.93-4.75Zm-22,54c.29-.19.73-.31.84-.57q3.61-8.73,7.18-17.49l-.52-.26-8.11,17.26c-6.22,14.55-8.61,31.17-5.74,40.93a131.06,131.06,0,0,1,4.17-31C442.7,62.22,443.41,59.27,444.13,56.33Z" transform="translate(-8 -2.3)"/><path class="cls-2" d="M536.58,151.91c1.43-4,2.86-7.93,4.51-12.53,7,16.78,10.39,33.76,7.49,51.52-3.93,24.06-18.5,40.47-38.63,52.61l-.87-.44c1-2.46,2-5,3.13-7.39,4.65-10.15,7.55-20.68,6.4-31.93A70.36,70.36,0,0,0,503,166c-8.18-10.13-19.19-16.39-30-23.07-8-4.94-15.78-10.16-22.29-17a41.25,41.25,0,0,1-10.62-20.57,7.81,7.81,0,0,1,1.47-6.13c5.53-8.4,10.9-16.9,16.51-25.24a42.91,42.91,0,0,0,7.66-23.23c0-1.38.29-2.75.45-4.23,2.13,1.93,4.24,3.64,6.11,5.59,2.58,2.7,4.92,5.62,7.45,8.37,7.28,7.86,14.88,15.44,21.74,23.65,2.13,2.55,2.81,6.66,3.29,10.17a37.6,37.6,0,0,1-2.1,17.49l-.33,1,.83-.48c4.72-4.85,6.45-11.09,8-18,2.9,3.22,5.57,6,8,8.93a124.43,124.43,0,0,1,15.74,23.43,14,14,0,0,1,1.3,3.35c1.49,7.17,1.09,14.34-.2,21.5l-.42,1.17Z" transform="translate(-8 -2.3)"/><path class="cls-3" d="M589.13,220.43l.12,0c2.38,1,3.52.39,4.83-2.59v0l.54-.56,0,0,.54-.56,0,0,.54-.56,0,0,2.15-2.62h0l.53-.55,0,0,.54-.55,0,0c.18-.18.36-.37.55-.55l0,0,.54-.56,0,0L602,208.9v0l.53-.55,0,0,.54-.55,0,0,.54-.55,0,0,.54-.56,0,0,2.16-2.61h0l.53-.55,0,0,.54-.55,0,0,.55-.55,0,0,.54-.56,0,0,2.68-3.13h0l.53-.55v0l.53-.55,0,0,.54-.55,0,0,.54-.55,0,0,.54-.56,0,0,.54-.56,0,0,4.25-4.71h0l.54-.54,0,0,.54-.54h0l.53-.54h0l.53-.54v0l.54-.55,0,0,.54-.54,0,0,.55-.55,0,0,.54-.54,0,0,.55-.53h0l1.57-1.09,0,0,.67-.54h.14l.8-.53h0c2-.69,3.87-1.51,5.86-2.05a29.79,29.79,0,0,1,21.73,2.05h.13l.67.54,0,0,3.71,3.69,0,0c.18.18.35.37.53.56v0l.59,1.05,0-.05c1.59,3.14,2.85,6.31,1,9.8v.13l-.54.68,0,0-.57,1.07,0,0-2.09,3.73v-.06L656,207.38v0l-.54,1.07v0c-.51.9-1,1.8-1.55,2.69V211l-1.08,1.63.81.86c.07-.31.15-.63.22-.94l0,0a6,6,0,0,0,1.84-.34c6.93-3.91,12.27-9.54,17.25-15.66,2.39-3,3-6,3-9.59.36-13.43,1.07-26.85,1.63-40.28.4-9.51,4.86-17.07,11.27-23.72,1.87-2,3.64-4,5.49-6a3.83,3.83,0,0,1,2.32-1.19c-.43,3.38-.88,6.76-1.28,10.14-1.53,13.25-3.19,26.49-4.51,39.76a22,22,0,0,0,4.12,15.81c3,3.92,7.16,6.07,11.48,7.87,13.3,5.54,27.26,8.57,41.54,10.09,6.83.73,13.71,1,20.57,1.5h-2.47c0,.24,0,.48,0,.71l13.44-.61c9.17-.74,18.42-1,27.51-2.32a248.11,248.11,0,0,0,48-12c4.16-1.48,8.13-3.46,12.19-5.2h0l10.51-5.26,0,0,3.16-1.61h-.05l2.68-1.57,0,0,1.07-.55h0l2.67-1.58,0,0,1.07-.56h0l2.68-1.57h0l1.62-1h0l1.06-.55,0,0,1.07-.58-.05,0,2.67-1.6-.05,0,1.64-1.06,0,0,1.06-.56,0,0,.68-.55.14,0,.8-.53h0l1.59-1.07,0,0c1-.44,1.75-.46,1.6.94-.22,2.14-.16,4.39-.83,6.4-1.62,4.8-3.59,9.49-5.41,14.23v0l-1.08,1.6,0,0-.53.57,0,0-1.11,1.55h0l-.52.54v0l-.54.54h0l-.53.54v0l-.54.54h0l-2.09,1.61,0,0-.56.52h0l-1,.57h0l-1.62,1.05v0c-1.18,0-1.8-.3-1.32-1.7.8-2.28,1.49-4.6,2.14-6.92.34-1.21.49-2.48.72-3.72l-.66-.23-1.94,1.58h0l-1.62,1h0l-1.07.57,0-.05-.69.55-.13,0-.8.53h0l-1.07.56h.05l-2.68,1.57,0,0-2.12,1.09h.06l-4.79,2.6,0,0a7.32,7.32,0,0,0-1.24.34c-14.71,7.06-30.12,12.27-45.48,17.66-18.8,6.59-38.17,8.93-57.88,9.17a234.48,234.48,0,0,1-23.7-1A173,173,0,0,1,721.92,213c-7.77-1.72-15.32-4.44-23-6.72h0l-1.07-.53h0l-9-4.72,0,0L687.4,200h0l-.58-.53,0,0-1.56-1.11h0l-.56-.53,0,0-.56-.54,0,0-.56-.55,0,0c-2.3-3-3.86-3-5.22,0h0l-.52.56,0,0L677,199v0l-.53.57,0,0-1.08,1.58v0c-.18.19-.35.38-.53.56l0,0-1.09,1.57h0l-.52.56,0,0-.53.58,0,0-1.11,1.57,0,0-.54.56,0,0-1.09,1.57h0l-.53.55,0,0c-.18.19-.36.37-.53.56l0,0-1.61,2.1h0l-.53.55,0,0-.54.55,0,0-.54.55,0,0-.55.56,0,0-1.61,1.61,0,0-.56.55,0,0-.55.54,0,0-.55.54,0,0-.56.53h0l-1.57,1.09,0,0-.56.53h0l-1.59,1.07h0l-1.61,1.05h0l-2.11,1.09h.06l-11.6,4.7,0,0-.54.54,0,0-.55.54,0,0-.55.53h0l-1.57,1.09,0,0-.56.53h0l-1.57,1.08,0,0-.56.52h0l-1,.59,0,0-.58.52h0l-1.06.58,0,0c-4.77,2.09-9.51,4.27-14.32,6.27-11.5,4.77-23.44,5.47-35.51,3-3.49-.71-6.72-2.68-10.06-4.07l0,0-.57-.53,0,0-1.56-1.11h0l-.55-.54,0,0c-.18-.19-.37-.37-.55-.55l0,0c-.18-.19-.36-.37-.55-.55l0,0-.55-.55,0,0c-.19-.18-.37-.36-.55-.55l0,0c-.17-.19-.35-.37-.53-.56v0l-1.11-1.56,0,0-.53-.58v0c-.35-.54-.71-1.07-1.06-1.6v0a4,4,0,0,0-.25-1c-3.28-5.59-5.31-11.63-4.86-18.1a191.3,191.3,0,0,1,2.57-19c1.81-10.57,3.63-21.16,5.88-31.65a93.17,93.17,0,0,1,8.73-24.71l0,0,1.08-1.59v0c.17-.19.35-.37.53-.56l0,0,.54-.57,0,0,5.18-4.6a7.43,7.43,0,0,1,.06,1.31c-3.07,14.49-6.21,29-9.19,43.47-1.55,7.54-3.77,15-3.32,22.83.26,4.44,1.08,8.76,3.7,12.53l0,0,.55,1.07v0c.34.54.69,1.08,1,1.62l0,0,1.08,1.58,0,0c.17.19.35.37.53.56v0l1.61,2.1,0,0,.55.56,0,0c.18.19.37.37.55.55l0,0,.55.55,0,0c.18.19.37.37.55.55l0,0,.56.54,0,0,2.11,1.61h0l.58.52-.05,0,1.06.57h0Zm7.06,2.21.61,1.07c3.65,0,7.31,0,11,0a67.09,67.09,0,0,0,35.16-10.45c3-1.86,3.24-3.26,1.43-6.27-5.51-9.21-19.75-12-27.7-4.83C609.48,208.59,603,215.78,596.19,222.64Z" transform="translate(-8 -2.3)"/><path class="cls-4" d="M213.37,184.86c.48,4.75.78,9.52,1.47,14.24.89,6.06,2.16,12.1,6.87,16.54,5.89,5.56,14.57,6.67,19.61-2.52.58-1.07,1.26-2.08,1.83-3.15,3.67-6.87,9.13-6.88,14.67-5.37a26.41,26.41,0,0,1,2.68,1c3.94,1.58,4.67,1.29,6.57-2.65,3.89-8.07-1.23-18.59-9.95-20.61-10.94-2.52-21.85-5.16-32.79-7.69a1.84,1.84,0,0,1-1.42-2.77,27.75,27.75,0,0,1,2.81-5.23c3.88-5.83,9.5-9.8,15.1-13.74A386,386,0,0,1,300,118.58q25.68-11.94,51.36-23.84A37.88,37.88,0,0,1,355,93.46l.63.47a14.71,14.71,0,0,1-1.45,2.95q-5.56,7-11.3,13.94a6.41,6.41,0,0,1-2.24,1.73c-6.91,3.09-13.92,5.94-20.76,9.16-18.82,8.85-37.78,17.45-56.27,26.94-10.22,5.25-19.62,12.1-29.38,18.23-.12.08-.16.27-.35.6,4.12.82,8.21,1.51,12.24,2.44,13.88,3.21,27,8.62,40.13,14,4.35,1.77,8.77,3.43,13.63,3.13,4.53-.27,6-1.38,6.38-5.88a146.16,146.16,0,0,0,.57-15.09c-.2-9.08,3.31-16.55,9.2-23.14,1.69-1.88,3.42-3.73,5.13-5.59l.77.47c-.24,1.4-.55,2.8-.71,4.21-.87,7.7-1.67,15.4-2.55,23.1-1,9.07-2.76,17.89-8.62,25.34-4.49,5.71-10.49,7.9-17.34,6.45-4.67-1-9.07-3.29-13.58-5-.55-.2-1.07-.46-1.83-.8.31,7.32-3.76,12.5-7.71,17.69-2.36,3.1-4.8,6.17-7.45,9-3.65,3.92-6.92,3.6-10.13-.69-2.14-2.84-3.25-3.05-5.49-.38s-3.88,5.76-6.14,8.37a70.16,70.16,0,0,1-8.93,9.06c-5.18,4.18-13,3.69-18.49-.38-5.05-3.77-7.32-9.13-8.88-14.9-3.05-11.31-3.61-22.89-3.2-34.51.58-16.38,1.1-32.77,3.72-49,1.32-8.19,3.07-16.28,8.44-23a47.42,47.42,0,0,1,4-4l.7.54q-.48,6.33-.95,12.66c-.69,9-1.48,18.07-2,27.11-.5,8.18-.74,16.38-1.11,24.57a3.88,3.88,0,0,1-.3,1c-.05-.32-.1-.63-.14-.95H213V185.8h.24Z" transform="translate(-8 -2.3)"/><path class="cls-5" d="M421.57,81.42c-.37,2.84-.92,5.67-1.09,8.51-.72,12.43,3.71,23.24,11.09,32.88,3.37,4.41,7.42,8.29,11.21,12.37,1.87,2,1.78,2.37-.65,3.78-17.66,10.28-31.35,24.06-37.82,43.92-4.44,13.62-3.79,27.35.35,40.9,1.72,5.64,4.15,11.05,6.25,16.57.29.77.52,1.56,1,3.1-12.49-6.49-22.07-15-29-26.31-8.58-13.9-11.48-29.18-11-45.22l.81-.27q1.88,4.4,3.76,8.79c-1.34-9.46-4-18.74-2-28.34a85.2,85.2,0,0,1,10.15-26.84l5.47,12.59.5-.12c-.16-1-.28-2-.5-3-.79-3.47-1.56-7-2.46-10.4-.85-3.26.71-5.76,2.42-8.2A207.57,207.57,0,0,1,412.37,89c2-2,3.86-4.25,5.89-6.28a18.86,18.86,0,0,1,2.83-1.94Z" transform="translate(-8 -2.3)"/><path class="cls-6" d="M12.59,216.77l.15,0a53.36,53.36,0,0,1,5.81.77c9.1,2.17,18.11,4.79,27.28,6.55,6.61,1.28,13.42,1.46,20.15,2.13H76c6.06-.33,12.12-.59,18.17-1s12.33-.63,18.36-1.73c11.48-2.09,22.91-4.58,34.27-7.26,4.51-1.06,8.79-3.1,13.18-4.69h.19l2.34-1,0,0,6.84-3.18h0l2.68-1.57,0,0,1.07-.56,0,0,.66-.53h.16l.79-.53,0,0,.65-.53h.16l.79-.54,0,0,.57-.52v0l1.57-1.1,0,0,.57-.53,0,0,.56-.52h0l5.26-5.24h0l.52-.55v0l.52-.55v0l.53-.56,0,0,.54-.55,0,0,2.21-1.51a11.65,11.65,0,0,1,.37,3.21,50.46,50.46,0,0,1-1.47,5.17l0,0-1.08,1.59v0l-.52.56,0,0c-.18.18-.36.37-.55.55l0,0c-.18.18-.37.36-.55.55l0,0-.55.55,0,0-.55.55,0,0-.55.55,0,0-.54.56,0,0-6.32,6.33,0,0-.57.54,0,0-.55.54,0,0-.56.53,0,0-.55.52h0L173,214.75l0,0-.56.53,0,0-.56.51h0l-1,.59,0,0-.57.52h0l-1.59,1.07h0l-1.6,1.06,0,0L165.63,220l0,0-1.07.56h0L162,222.06h0l-1.08.55,0,0-1.07.54,0,0-1.08.55,0,0-1.17.55h-.18c-8.51,2.78-16.89,6.14-25.57,8.21-10.7,2.54-21.62,4.28-32.51,5.85a238.18,238.18,0,0,1-23.87,2.07c-7.94.35-15.9,0-23.86.12-13.22.19-26.18-1.29-38.7-5.78l0,0-1.57-1.09h0l-.56-.52,0,0-.56-.55,0,0L9.85,232l0,0-.54-.65v-.15c-.18-.27-.35-.54-.53-.8l0,0a32.71,32.71,0,0,1,.5-5.72c.66-2.54,1.75-5,2.66-7.44h0Z" transform="translate(-8 -2.3)"/><path class="cls-7" d="M856.17,120.74c5.57,2,9.72.61,13-3.55a114.76,114.76,0,0,1,8.61-9.32,2,2,0,0,1,1.92.17,7.63,7.63,0,0,1-.31,11.66,4.3,4.3,0,0,1-3.46.66c-3.34-1-4.92-.67-6.95,2.12a11.18,11.18,0,0,0-1.24,2c-2,4.63-5.44,6.39-10.46,5.64a62.65,62.65,0,0,0-17.62-.06c-4.82.65-8.85-.49-11-6.36-.92,1.24-1.54,2-2,2.79-1.71,2.73-4.35,3.67-7.36,3.58-1.73-.05-2.94.33-3.32,2.11s-1.31,1.69-2.72,1.3c-6.43-1.79-11.14.74-13.62,7.12-3.18,8.18-4,16.74-4.31,25.4-.09,2.7-.19,5.41-.49,8.09-.07.64-1,1.18-1.47,1.77-.33-.52-1-1-1-1.57.08-10.11-.16-20.31,2.36-30.18,1.35-5.25,3.18-10.5,6.7-14.86.76-.93,1.82-1.61,2.58-2.55a29.35,29.35,0,0,0,3.85-5.37c.77-1.59,1.21-2.21,3-1.33,4.18,2,8.66,1.64,13.07,1.09.89-.11,2.37-1.08,2.35-1.6a4,4,0,0,0-1.62-2.76,30.93,30.93,0,0,0-5-2.13c0-2.62,1.89-4,4.12-4.86a13.11,13.11,0,0,1,10.19.38c2.53,1.11,3.08,2.86,1.7,5.29a22.23,22.23,0,0,1-2.48,3.34c-1,1.17-1,2,.6,2.51,4.27,1.47,7.16.14,8-4.27a72.51,72.51,0,0,0,1.33-13c0-5.11,1.78-9.53,4.07-13.87.28-.53,1.12-.76,1.71-1.13a9.09,9.09,0,0,1,.26,2.11c-.79,6.3-1.63,12.59-2.45,18.89,0,.21.14.44.28.84,1.87-1.57,3.6-3.11,5.43-4.52a8.68,8.68,0,0,1,2.56-1.24c4.1-1.32,6.67.45,5.88,4.59-.6,3.15-2.33,6.09-3.59,9.11A18.63,18.63,0,0,1,856.17,120.74ZM843.72,120l.43.71a15,15,0,0,0,10.05-4.59c.74-.72,1.45-2.49,1.07-3.13-.89-1.51-2.54-1.3-3.81-.17C848.84,115.19,846.3,117.62,843.72,120Z" transform="translate(-8 -2.3)"/><path class="cls-8" d="M456.35,235a23.71,23.71,0,0,1,0-3.88,9.53,9.53,0,0,0-2.9-9c-3.12-3.13-6.62-5.88-9.85-8.91s-3.49-4.62-1.25-8.25c2.64-4.26,5.66-8.28,8.59-12.36,1.26-1.76,2.71-3.37,4-5.08,2-2.54,4.75-3,7.24-.9,4,3.35,8,6.7,11.76,10.28,4.07,3.85,5.26,8.59,2.83,13.78-4,8.66-9.34,16.44-17,22.37A30,30,0,0,1,456.35,235Z" transform="translate(-8 -2.3)"/><path class="cls-4" d="M642.83,107.52a24.41,24.41,0,0,1-.18,2.55c-3.28,16.74-6.48,33.5-9.93,50.2-1.79,8.67-5.88,16.09-13.05,21.63-1.71,1.33-3.1,3.07-4.7,4.55a21.88,21.88,0,0,1-2.41,1.72l-.78-.54c.76-1.74,1.45-3.51,2.28-5.22,3.42-7.11,4.41-14.76,5.33-22.47,1.12-9.43,2.54-18.81,3.83-28.22.67-5,3.26-9,6.61-12.45,3.61-3.76,7.44-7.31,11.2-10.92A8,8,0,0,1,642.83,107.52Z" transform="translate(-8 -2.3)"/><path class="cls-9" d="M343.41,144.19c0,2.39,0,4.78,0,7.17.12,9.95.47,19.9.31,29.84-.12,7.39-.3,14.87-1.55,22.12-1.71,9.87-7.19,18.17-13.2,26-.53.69-1.73.86-2.61,1.27a7.8,7.8,0,0,1-.16-2.82c1.33-3.85,3.25-7.53,4.18-11.46a90.79,90.79,0,0,0,1.75-28.58c-.54-6.6-.06-13.36-1.3-19.8-1.68-8.78,2.2-14.9,7.67-20.7,1.2-1.27,2.6-2.35,3.92-3.51Z" transform="translate(-8 -2.3)"/><path class="cls-9" d="M116.39,276.18c-1-1-1.76-1.76-2.53-2.58a22.32,22.32,0,0,0-2.25-2.4c-1.92-1.47-4-2.78-5.94-4.19a2.4,2.4,0,0,1-.52-3.84c2.81-3.31,5.71-6.55,8.62-9.77,1.31-1.45,2.91-1.1,4.27-.17,3.28,2.26,6.5,4.61,9.69,7a3.47,3.47,0,0,1,.51,5.47c-2.6,2.93-5.25,5.82-8,8.57C119.38,275.08,118,275.39,116.39,276.18Z" transform="translate(-8 -2.3)"/><path class="cls-10" d="M260,247.44c-.22,4.42-2.72,7.15-4.88,9.87-1.74,2.19-4.2,3.84-6.44,5.6-1.15.91-2.34.32-2-1,1.05-4.14-2-6-4.49-7.63-6.07-4-4.16-5.31-1.08-9.61a34.35,34.35,0,0,1,5.26-6.07c.92-.79,3.24-1.19,4.12-.58a77.37,77.37,0,0,1,8.54,7.15A5.4,5.4,0,0,1,260,247.44Z" transform="translate(-8 -2.3)"/><path class="cls-11" d="M699,206.32c7.65,2.28,15.2,5,23,6.72a173,173,0,0,0,22.37,3.15,234.48,234.48,0,0,0,23.7,1c19.71-.24,39.08-2.58,57.88-9.17,15.36-5.39,30.77-10.6,45.48-17.66a7.32,7.32,0,0,1,1.24-.34c-4.37,2.11-8.64,4.46-13.12,6.3-17.48,7.14-35.17,13.8-53.7,17.69a184.48,184.48,0,0,1-24.83,3.08,228.39,228.39,0,0,1-25.36.54c-18.5-.77-36.77-3.11-54.18-9.95A19.84,19.84,0,0,1,699,206.32Z" transform="translate(-8 -2.3)"/><path class="cls-12" d="M13,234.64c12.52,4.49,25.48,6,38.7,5.78,8-.11,15.92.23,23.86-.12a238.18,238.18,0,0,0,23.87-2.07c10.89-1.57,21.81-3.31,32.51-5.85,8.68-2.07,17.06-5.43,25.57-8.21-2.57,1.18-5.07,2.58-7.73,3.51a235.85,235.85,0,0,1-54.29,11.7,374.7,374.7,0,0,1-52.32,1.32c-8.55-.34-17.06-2.36-25.55-3.81C16,236.61,14.53,235.41,13,234.64Z" transform="translate(-8 -2.3)"/><path class="cls-11" d="M578.86,134.94a93.17,93.17,0,0,0-8.73,24.71c-2.25,10.49-4.07,21.08-5.88,31.65a191.3,191.3,0,0,0-2.57,19c-.45,6.47,1.58,12.51,4.86,18.1a4,4,0,0,1,.25,1c-3.16-3.5-4.13-7.94-5.07-12.32-1.25-5.9-.7-11.79.43-17.67,2.55-13.26,4.57-26.64,7.58-39.79,1.77-7.75,5-15.17,7.63-22.72A8.35,8.35,0,0,1,578.86,134.94Z" transform="translate(-8 -2.3)"/><path class="cls-11" d="M577.35,207.87c-2.62-3.77-3.44-8.09-3.7-12.53-.45-7.82,1.77-15.29,3.32-22.83,3-14.51,6.12-29,9.19-43.47a7.43,7.43,0,0,0-.06-1.31l-5.18,4.6c1.69-2.17,3.14-4.59,6.3-6.14-1.07,5.08-2,9.55-3,14-3.29,16.1-6.62,32.2-9.8,48.33-1.15,5.87-.14,11.6,2.11,17.12C576.87,206.39,577.1,207.14,577.35,207.87Z" transform="translate(-8 -2.3)"/><path class="cls-11" d="M867.32,181.62c-4.06,1.74-8,3.72-12.19,5.2a248.11,248.11,0,0,1-48,12c-9.09,1.3-18.34,1.58-27.51,2.32l-2.5-.08a14.07,14.07,0,0,1,2-.34,225.51,225.51,0,0,0,60.61-9.68C849,188.27,858.13,184.78,867.32,181.62Z" transform="translate(-8 -2.3)"/><path class="cls-12" d="M160,211.49c-4.39,1.59-8.67,3.63-13.18,4.69-11.36,2.68-22.79,5.17-34.27,7.26-6,1.1-12.23,1.28-18.36,1.73s-12.11.7-18.18,1c0-.14,0-.28,0-.43,9.8-.66,19.65-1,29.41-2.05,17.94-1.95,35.59-5.43,52.56-11.78A13.58,13.58,0,0,1,160,211.49Z" transform="translate(-8 -2.3)"/><path class="cls-11" d="M574.65,237.79c3.34,1.39,6.57,3.36,10.06,4.07,12.07,2.44,24,1.74,35.51-3,4.81-2,9.55-4.18,14.32-6.27-3.57,1.85-7.06,3.91-10.74,5.5-7.87,3.41-16.08,5.71-24.72,5.74-7.93,0-15.86-.39-23-4.7A10.68,10.68,0,0,1,574.65,237.79Z" transform="translate(-8 -2.3)"/><path class="cls-12" d="M66,226.2c-6.73-.67-13.54-.85-20.15-2.13-9.17-1.76-18.18-4.38-27.28-6.55a53.36,53.36,0,0,0-5.81-.77c1.43-.1,3-.65,4.27-.23a158.17,158.17,0,0,0,30.06,7.42c5.16.69,10.38,1,15.57,1.44,1.12.1,2.23.26,3.35.39C66,225.91,66,226.06,66,226.2Z" transform="translate(-8 -2.3)"/><path class="cls-11" d="M653.64,184.25a29.79,29.79,0,0,0-21.73-2.05c-2,.54-3.91,1.36-5.86,2.05,3.05-1.11,6-2.62,9.17-3.23a27.42,27.42,0,0,1,15.87,1.54A15.44,15.44,0,0,1,653.64,184.25Z" transform="translate(-8 -2.3)"/><path class="cls-11" d="M898.3,183.28c1.82-4.74,3.79-9.43,5.41-14.23.67-2,.61-4.26.83-6.4.15-1.4-.62-1.38-1.6-.94.91-1.38,2.06-1.35,2.06.3A34.77,34.77,0,0,1,898.3,183.28Z" transform="translate(-8 -2.3)"/><path class="cls-11" d="M887.26,181.7l1.94-1.58.66.23c-.23,1.24-.38,2.51-.72,3.72-.65,2.32-1.34,4.64-2.14,6.92-.48,1.4.14,1.71,1.32,1.7-1.75,1.12-2.32.31-1.89-1.36.65-2.61,1.53-5.17,2.31-7.75C889.15,182.25,889.07,181.29,887.26,181.7Z" transform="translate(-8 -2.3)"/><path class="cls-12" d="M12,217.3c-.91,2.47-2,4.9-2.66,7.44a32.71,32.71,0,0,0-.5,5.72c-.28-1.05-1-2.25-.75-3.11C9.19,223.94,10.64,220.64,12,217.3Z" transform="translate(-8 -2.3)"/><path class="cls-11" d="M877.8,176.37l-10.51,5.26Z" transform="translate(-8 -2.3)"/><path class="cls-11" d="M642.87,226.26l11.6-4.7Z" transform="translate(-8 -2.3)"/><path class="cls-12" d="M187.67,200a50.46,50.46,0,0,0,1.47-5.17,11.65,11.65,0,0,0-.37-3.21l-2.21,1.51,2.18-2.7C190.14,194.36,189.88,197.31,187.67,200Z" transform="translate(-8 -2.3)"/><path class="cls-12" d="M176.68,211.61l6.32-6.33Z" transform="translate(-8 -2.3)"/><path class="cls-13" d="M777.13,201.07l2.5.08-13.44.61c0-.23,0-.47,0-.71h2.47Z" transform="translate(-8 -2.3)"/><path class="cls-14" d="M213.37,184.86l-.15.95H213V173.31h.25c0,.32.09.63.14.95Z" transform="translate(-8 -2.3)"/><path class="cls-11" d="M689,201.09l9,4.72Z" transform="translate(-8 -2.3)"/><path class="cls-11" d="M660.2,199.77c1.81-3.49.55-6.66-1-9.8A7.4,7.4,0,0,1,660.2,199.77Z" transform="translate(-8 -2.3)"/><path class="cls-12" d="M184.52,195.29l-5.26,5.24Z" transform="translate(-8 -2.3)"/><path class="cls-12" d="M169.29,207.3l-6.84,3.18Z" transform="translate(-8 -2.3)"/><path class="cls-11" d="M618.21,191.08,614,195.79Z" transform="translate(-8 -2.3)"/><path class="cls-15" d="M66,226.2c0-.14,0-.29,0-.43H76c0,.15,0,.29,0,.43Z" transform="translate(-8 -2.3)"/><path class="cls-11" d="M678.53,196.88c1.36-3,2.92-3,5.22,0C682,195.94,680.29,194,678.53,196.88Z" transform="translate(-8 -2.3)"/><path class="cls-11" d="M594.08,217.82c-1.31,3-2.45,3.59-4.83,2.59C591.86,221.42,592.47,218.68,594.08,217.82Z" transform="translate(-8 -2.3)"/><path class="cls-11" d="M872.57,190.08l4.79-2.6Z" transform="translate(-8 -2.3)"/><path class="cls-11" d="M658.12,188.45l-3.71-3.69Z" transform="translate(-8 -2.3)"/><path class="cls-11" d="M657.07,205.32l2.09-3.73Z" transform="translate(-8 -2.3)"/><path class="cls-11" d="M610.87,199l-2.68,3.13Z" transform="translate(-8 -2.3)"/><path class="cls-11" d="M602,208.9l-2.15,2.62Z" transform="translate(-8 -2.3)"/><path class="cls-11" d="M606.15,204.19,604,206.8Z" transform="translate(-8 -2.3)"/><path class="cls-11" d="M597.76,213.63l-2.15,2.62Z" transform="translate(-8 -2.3)"/><path class="cls-11" d="M887.24,171.12l-2.67,1.58Z" transform="translate(-8 -2.3)"/><path class="cls-11" d="M879.39,186.42l2.68-1.57Z" transform="translate(-8 -2.3)"/><path class="cls-11" d="M653.93,211.09c.52-.89,1-1.79,1.55-2.69Z" transform="translate(-8 -2.3)"/><path class="cls-12" d="M171.92,205.74l-2.68,1.57Z" transform="translate(-8 -2.3)"/><path class="cls-11" d="M890.91,169l-2.68,1.57Z" transform="translate(-8 -2.3)"/><path class="cls-11" d="M883.57,173.22l-2.68,1.57Z" transform="translate(-8 -2.3)"/><path class="cls-11" d="M880.94,174.78l-3.16,1.61Z" transform="translate(-8 -2.3)"/><path class="cls-12" d="M162,222.06l2.67-1.56Z" transform="translate(-8 -2.3)"/><path class="cls-11" d="M897.19,165.33l-2.67,1.6Z" transform="translate(-8 -2.3)"/><path class="cls-11" d="M667.52,211l1.61-2.1Z" transform="translate(-8 -2.3)"/><path class="cls-11" d="M891.46,190.61l2.09-1.61Z" transform="translate(-8 -2.3)"/><path class="cls-11" d="M582.08,214.67l-1.61-2.1Z" transform="translate(-8 -2.3)"/><path class="cls-12" d="M162.48,210.46l-2.34,1Z" transform="translate(-8 -2.3)"/><path class="cls-11" d="M586.78,218.87l-2.11-1.61Z" transform="translate(-8 -2.3)"/><path class="cls-11" d="M660.19,217.89l1.57-1.09Z" transform="translate(-8 -2.3)"/><path class="cls-12" d="M168.79,217.88l1.59-1.07Z" transform="translate(-8 -2.3)"/><path class="cls-11" d="M685.32,198.44l1.56,1.11Z" transform="translate(-8 -2.3)"/><path class="cls-11" d="M656,207.38l1.08-2.12Z" transform="translate(-8 -2.3)"/><path class="cls-11" d="M892.49,168l-1.62,1Z" transform="translate(-8 -2.3)"/><path class="cls-11" d="M885.68,182.74l1.62-1Z" transform="translate(-8 -2.3)"/><path class="cls-11" d="M572.57,236.21l1.56,1.11Z" transform="translate(-8 -2.3)"/><path class="cls-12" d="M11.44,233.57,13,234.66Z" transform="translate(-8 -2.3)"/><path class="cls-11" d="M624.49,185.27l-1.57,1.09Z" transform="translate(-8 -2.3)"/><path class="cls-11" d="M895.64,186.9l1.11-1.55Z" transform="translate(-8 -2.3)"/><path class="cls-12" d="M186.61,201.6l1.08-1.59Z" transform="translate(-8 -2.3)"/><path class="cls-11" d="M568.32,231.51l1.11,1.56Z" transform="translate(-8 -2.3)"/><path class="cls-11" d="M877.3,187.49l2.12-1.09Z" transform="translate(-8 -2.3)"/><path class="cls-11" d="M897.23,184.84l1.08-1.6Z" transform="translate(-8 -2.3)"/><path class="cls-11" d="M566.78,229.39c.35.53.71,1.06,1.06,1.6C567.49,230.45,567.13,229.92,566.78,229.39Z" transform="translate(-8 -2.3)"/><path class="cls-12" d="M167.22,218.93l1.6-1.06Z" transform="translate(-8 -2.3)"/><path class="cls-11" d="M888.31,192.71l1.62-1.05Z" transform="translate(-8 -2.3)"/><path class="cls-11" d="M671.72,205.81l1.11-1.57Z" transform="translate(-8 -2.3)"/><path class="cls-11" d="M663.87,214.76l1.61-1.61Z" transform="translate(-8 -2.3)"/><path class="cls-11" d="M654.41,221.57l2.11-1.09Z" transform="translate(-8 -2.3)"/><path class="cls-11" d="M578.92,210.49c-.35-.54-.7-1.08-1-1.62C578.22,209.41,578.57,210,578.92,210.49Z" transform="translate(-8 -2.3)"/><path class="cls-11" d="M687.4,200l1.6,1.07Z" transform="translate(-8 -2.3)"/><path class="cls-11" d="M579.92,133.38,578.84,135Z" transform="translate(-8 -2.3)"/><path class="cls-11" d="M656.5,220.49l1.61-1.05Z" transform="translate(-8 -2.3)"/><path class="cls-12" d="M165.63,220l1.62-1.06Z" transform="translate(-8 -2.3)"/><path class="cls-11" d="M658.08,219.45l1.59-1.07Z" transform="translate(-8 -2.3)"/><path class="cls-11" d="M580,212.05l-1.08-1.58Z" transform="translate(-8 -2.3)"/><path class="cls-11" d="M652.86,212.67l1.08-1.63c0,.52-.05,1-.07,1.57l0,0Z" transform="translate(-8 -2.3)"/><path class="cls-11" d="M903,161.68l-1.59,1.07Z" transform="translate(-8 -2.3)"/><path class="cls-12" d="M173,214.75l1.55-1.11Z" transform="translate(-8 -2.3)"/><path class="cls-11" d="M639.73,228.9l1.57-1.09Z" transform="translate(-8 -2.3)"/><path class="cls-11" d="M637.64,230.47l1.57-1.08Z" transform="translate(-8 -2.3)"/><path class="cls-11" d="M898.78,164.3l-1.64,1.06Z" transform="translate(-8 -2.3)"/><path class="cls-11" d="M675.39,201.08l1.08-1.58Z" transform="translate(-8 -2.3)"/><path class="cls-12" d="M178.2,201.53l-1.57,1.1Z" transform="translate(-8 -2.3)"/><path class="cls-11" d="M673.81,203.17l1.09-1.57Z" transform="translate(-8 -2.3)"/><path class="cls-11" d="M677,199l1.09-1.58Z" transform="translate(-8 -2.3)"/><path class="cls-11" d="M670.14,207.89l1.09-1.57Z" transform="translate(-8 -2.3)"/><path class="cls-11" d="M697.9,205.8l1.07.53Z" transform="translate(-8 -2.3)"/><path class="cls-11" d="M659.14,201.62l.57-1.07Z" transform="translate(-8 -2.3)"/><path class="cls-11" d="M882,184.86l1.07-.56Z" transform="translate(-8 -2.3)"/><path class="cls-11" d="M655.47,208.43l.54-1.07Z" transform="translate(-8 -2.3)"/><path class="cls-11" d="M899.81,163.76l-1.06.56Z" transform="translate(-8 -2.3)"/><path class="cls-11" d="M894.57,166.89l-1.07.58Z" transform="translate(-8 -2.3)"/><path class="cls-11" d="M893.53,167.45l-1.06.55Z" transform="translate(-8 -2.3)"/><path class="cls-11" d="M884.61,172.69l-1.07.55Z" transform="translate(-8 -2.3)"/><path class="cls-11" d="M884.64,183.3l1.07-.57Z" transform="translate(-8 -2.3)"/><path class="cls-11" d="M577.88,208.91l-.55-1.07Z" transform="translate(-8 -2.3)"/><path class="cls-12" d="M173,205.2l-1.07.56Z" transform="translate(-8 -2.3)"/><path class="cls-12" d="M170.9,216.33l1-.59Z" transform="translate(-8 -2.3)"/><path class="cls-11" d="M588.35,219.91l-1.06-.57Z" transform="translate(-8 -2.3)"/><path class="cls-12" d="M164.59,220.51l1.07-.56Z" transform="translate(-8 -2.3)"/><path class="cls-12" d="M160.91,222.6l1.08-.55Z" transform="translate(-8 -2.3)"/><path class="cls-12" d="M159.87,223.12l1.07-.54Z" transform="translate(-8 -2.3)"/><path class="cls-12" d="M158.82,223.65l1.08-.55Z" transform="translate(-8 -2.3)"/><path class="cls-12" d="M157.68,224.18l1.17-.55Z" transform="translate(-8 -2.3)"/><path class="cls-11" d="M888.28,170.58l-1.07.56Z" transform="translate(-8 -2.3)"/><path class="cls-11" d="M889.88,191.67l1-.57Z" transform="translate(-8 -2.3)"/><path class="cls-11" d="M636.07,231.55l1-.59Z" transform="translate(-8 -2.3)"/><path class="cls-11" d="M634.49,232.6l1.06-.58Z" transform="translate(-8 -2.3)"/><path class="cls-11" d="M659.2,190l-.59-1.05Z" transform="translate(-8 -2.3)"/><path class="cls-11" d="M895.12,187.44l.52-.54Z" transform="translate(-8 -2.3)"/><path class="cls-11" d="M621.88,187.39l-.55.55Z" transform="translate(-8 -2.3)"/><path class="cls-11" d="M894.59,188l.54-.54Z" transform="translate(-8 -2.3)"/><path class="cls-11" d="M621.35,187.92l-.54.54Z" transform="translate(-8 -2.3)"/><path class="cls-11" d="M894.07,188.49l.53-.54Z" transform="translate(-8 -2.3)"/><path class="cls-11" d="M620.83,188.44l-.54.55Z" transform="translate(-8 -2.3)"/><path class="cls-11" d="M658.62,189c-.18-.19-.35-.38-.53-.56C658.27,188.61,658.44,188.8,658.62,189Z" transform="translate(-8 -2.3)"/><path class="cls-11" d="M893.54,189l.54-.54Z" transform="translate(-8 -2.3)"/><path class="cls-11" d="M620.3,189l-.53.54Z" transform="translate(-8 -2.3)"/><path class="cls-12" d="M184.53,203.72l.55-.55C184.89,203.35,184.71,203.54,184.53,203.72Z" transform="translate(-8 -2.3)"/><path class="cls-12" d="M176.11,203.11l-.79.54Z" transform="translate(-8 -2.3)"/><path class="cls-12" d="M173.59,204.7l-.66.53Z" transform="translate(-8 -2.3)"/><path class="cls-12" d="M183,205.31l.54-.56Z" transform="translate(-8 -2.3)"/><path class="cls-11" d="M607.71,202.59l-.55.55Z" transform="translate(-8 -2.3)"/><path class="cls-12" d="M185.05,203.2c.18-.19.37-.37.55-.55C185.42,202.83,185.23,203,185.05,203.2Z" transform="translate(-8 -2.3)"/><path class="cls-12" d="M176.64,202.61l-.57.52Z" transform="translate(-8 -2.3)"/><path class="cls-11" d="M671.2,206.35l.54-.56Z" transform="translate(-8 -2.3)"/><path class="cls-11" d="M673.3,203.72l.52-.56Z" transform="translate(-8 -2.3)"/><path class="cls-11" d="M604,206.77l-.54.56Z" transform="translate(-8 -2.3)"/><path class="cls-11" d="M608.22,202.05l-.54.56Z" transform="translate(-8 -2.3)"/><path class="cls-11" d="M603.51,207.31l-.54.55Z" transform="translate(-8 -2.3)"/><path class="cls-11" d="M603,207.84l-.54.55Z" transform="translate(-8 -2.3)"/><path class="cls-11" d="M669.62,208.43l.53-.55Z" transform="translate(-8 -2.3)"/><path class="cls-11" d="M602.47,208.37l-.53.55Z" transform="translate(-8 -2.3)"/><path class="cls-12" d="M185.57,202.67c.19-.18.37-.37.55-.55C185.94,202.3,185.76,202.49,185.57,202.67Z" transform="translate(-8 -2.3)"/><path class="cls-11" d="M669.11,209c.17-.19.35-.37.53-.56C669.46,208.6,669.28,208.78,669.11,209Z" transform="translate(-8 -2.3)"/><path class="cls-12" d="M186.1,202.14l.52-.56Z" transform="translate(-8 -2.3)"/><path class="cls-11" d="M674.87,201.62c.18-.18.35-.37.53-.56C675.22,201.25,675.05,201.44,674.87,201.62Z" transform="translate(-8 -2.3)"/><path class="cls-11" d="M607.19,203.12l-.54.55Z" transform="translate(-8 -2.3)"/><path class="cls-12" d="M178.74,201l-.57.53Z" transform="translate(-8 -2.3)"/><path class="cls-12" d="M175.16,203.66l-.65.53Z" transform="translate(-8 -2.3)"/><path class="cls-12" d="M184,204.25l.55-.55Z" transform="translate(-8 -2.3)"/><path class="cls-11" d="M667,211.58l.53-.55Z" transform="translate(-8 -2.3)"/><path class="cls-12" d="M176.14,212.12l.57-.54Z" transform="translate(-8 -2.3)"/><path class="cls-11" d="M599.83,211.49l-.54.56Z" transform="translate(-8 -2.3)"/><path class="cls-11" d="M666.48,212.11l.54-.55Z" transform="translate(-8 -2.3)"/><path class="cls-12" d="M175.61,212.63l.55-.54Z" transform="translate(-8 -2.3)"/><path class="cls-11" d="M580.48,212.59c-.18-.19-.36-.37-.53-.56C580.12,212.22,580.3,212.4,580.48,212.59Z" transform="translate(-8 -2.3)"/><path class="cls-11" d="M599.32,212c-.19.18-.37.37-.55.55C599,212.4,599.13,212.21,599.32,212Z" transform="translate(-8 -2.3)"/><path class="cls-11" d="M666,212.64l.54-.55Z" transform="translate(-8 -2.3)"/><path class="cls-12" d="M175.07,213.14l.56-.53Z" transform="translate(-8 -2.3)"/><path class="cls-12" d="M179.27,200.53l-.56.52Z" transform="translate(-8 -2.3)"/><path class="cls-11" d="M598.8,212.56l-.54.55Z" transform="translate(-8 -2.3)"/><path class="cls-11" d="M606.67,203.65l-.53.55Z" transform="translate(-8 -2.3)"/><path class="cls-11" d="M665.44,213.18l.55-.56Z" transform="translate(-8 -2.3)"/><path class="cls-12" d="M174.54,213.64l.55-.52Z" transform="translate(-8 -2.3)"/><path class="cls-11" d="M598.28,213.09l-.53.55Z" transform="translate(-8 -2.3)"/><path class="cls-11" d="M659.67,200.58l.54-.68Z" transform="translate(-8 -2.3)"/><path class="cls-11" d="M672.79,204.27l.53-.58Z" transform="translate(-8 -2.3)"/><path class="cls-11" d="M686.85,199.52l.58.53Z" transform="translate(-8 -2.3)"/><path class="cls-12" d="M172.46,215.25l.56-.53Z" transform="translate(-8 -2.3)"/><path class="cls-11" d="M582.6,215.2l-.55-.56Z" transform="translate(-8 -2.3)"/><path class="cls-11" d="M663.34,215.27l.56-.55Z" transform="translate(-8 -2.3)"/><path class="cls-12" d="M171.92,215.74l.56-.51Z" transform="translate(-8 -2.3)"/><path class="cls-11" d="M583.12,215.72c-.18-.18-.37-.36-.55-.55C582.75,215.36,582.94,215.54,583.12,215.72Z" transform="translate(-8 -2.3)"/><path class="cls-11" d="M662.81,215.78l.55-.54Z" transform="translate(-8 -2.3)"/><path class="cls-11" d="M676.44,199.53,677,199Z" transform="translate(-8 -2.3)"/><path class="cls-11" d="M581,132.3l-.54.57Z" transform="translate(-8 -2.3)"/><path class="cls-11" d="M611.39,198.41l-.53.55Z" transform="translate(-8 -2.3)"/><path class="cls-11" d="M662.28,216.3l.55-.54Z" transform="translate(-8 -2.3)"/><path class="cls-12" d="M170.36,216.82l.57-.52Z" transform="translate(-8 -2.3)"/><path class="cls-11" d="M584.17,216.77c-.18-.18-.37-.36-.55-.55C583.8,216.41,584,216.59,584.17,216.77Z" transform="translate(-8 -2.3)"/><path class="cls-11" d="M595.64,216.22l-.54.56Z" transform="translate(-8 -2.3)"/><path class="cls-11" d="M661.74,216.81l.56-.53Z" transform="translate(-8 -2.3)"/><path class="cls-12" d="M12.59,216.77l-.63.54Z" transform="translate(-8 -2.3)"/><path class="cls-11" d="M684.78,197.92l.56.53Z" transform="translate(-8 -2.3)"/><path class="cls-11" d="M584.7,217.29l-.56-.54Z" transform="translate(-8 -2.3)"/><path class="cls-11" d="M595.12,216.75l-.54.56Z" transform="translate(-8 -2.3)"/><path class="cls-11" d="M611.91,197.88l-.53.55Z" transform="translate(-8 -2.3)"/><path class="cls-11" d="M684.25,197.4l.56.54Z" transform="translate(-8 -2.3)"/><path class="cls-11" d="M612.43,197.35l-.54.55Z" transform="translate(-8 -2.3)"/><path class="cls-11" d="M594.61,217.28l-.54.56Z" transform="translate(-8 -2.3)"/><path class="cls-11" d="M683.72,196.88l.56.55Z" transform="translate(-8 -2.3)"/><path class="cls-11" d="M678,197.43l.52-.56Z" transform="translate(-8 -2.3)"/><path class="cls-11" d="M659.65,218.39l.56-.53Z" transform="translate(-8 -2.3)"/><path class="cls-11" d="M613,196.82l-.54.55Z" transform="translate(-8 -2.3)"/><path class="cls-11" d="M613.47,196.29l-.54.56Z" transform="translate(-8 -2.3)"/><path class="cls-11" d="M587.34,219.38l-.58-.52Z" transform="translate(-8 -2.3)"/><path class="cls-11" d="M580.44,132.84c-.18.19-.36.37-.53.56C580.08,133.21,580.26,133,580.44,132.84Z" transform="translate(-8 -2.3)"/><path class="cls-11" d="M614,195.76l-.54.56Z" transform="translate(-8 -2.3)"/><path class="cls-11" d="M901.4,162.74l-.8.53Z" transform="translate(-8 -2.3)"/><path class="cls-11" d="M589.13,220.43l-.8-.53Z" transform="translate(-8 -2.3)"/><path class="cls-12" d="M185,194.75l-.52.55Z" transform="translate(-8 -2.3)"/><path class="cls-12" d="M185.55,194.22l-.52.55Z" transform="translate(-8 -2.3)"/><path class="cls-12" d="M186.07,193.68l-.53.56Z" transform="translate(-8 -2.3)"/><path class="cls-11" d="M900.46,163.25l-.68.55Z" transform="translate(-8 -2.3)"/><path class="cls-11" d="M884,183.8l.69-.55Z" transform="translate(-8 -2.3)"/><path class="cls-11" d="M883.06,184.31l.8-.53Z" transform="translate(-8 -2.3)"/><path class="cls-11" d="M626.07,184.24l-.8.53Z" transform="translate(-8 -2.3)"/><path class="cls-11" d="M654.44,184.78l-.67-.54Z" transform="translate(-8 -2.3)"/><path class="cls-12" d="M186.59,193.15l-.54.55Z" transform="translate(-8 -2.3)"/><path class="cls-11" d="M642.35,226.78l.54-.54Z" transform="translate(-8 -2.3)"/><path class="cls-11" d="M641.82,227.3l.55-.54Z" transform="translate(-8 -2.3)"/><path class="cls-11" d="M641.29,227.81l.55-.53Z" transform="translate(-8 -2.3)"/><path class="cls-12" d="M174.54,204.16l-.79.53Z" transform="translate(-8 -2.3)"/><path class="cls-11" d="M639.2,229.4l.56-.53Z" transform="translate(-8 -2.3)"/><path class="cls-11" d="M625.13,184.76l-.67.54Z" transform="translate(-8 -2.3)"/><path class="cls-12" d="M183.48,204.77l.55-.55Z" transform="translate(-8 -2.3)"/><path class="cls-12" d="M8.79,230.43c.18.26.35.53.53.8Z" transform="translate(-8 -2.3)"/><path class="cls-11" d="M637.1,231l.56-.52Z" transform="translate(-8 -2.3)"/><path class="cls-11" d="M567.83,231l.53.58Z" transform="translate(-8 -2.3)"/><path class="cls-11" d="M896.72,185.38l.53-.57Z" transform="translate(-8 -2.3)"/><path class="cls-12" d="M9.33,231.38l.54.65Z" transform="translate(-8 -2.3)"/><path class="cls-11" d="M890.92,191.11l.56-.52Z" transform="translate(-8 -2.3)"/><path class="cls-11" d="M635.53,232l.58-.52Z" transform="translate(-8 -2.3)"/><path class="cls-12" d="M9.85,232l.54.56Z" transform="translate(-8 -2.3)"/><path class="cls-11" d="M622.93,186.36l-.55.53Z" transform="translate(-8 -2.3)"/><path class="cls-12" d="M10.36,232.53l.56.55Z" transform="translate(-8 -2.3)"/><path class="cls-11" d="M618.74,190.55l-.54.54Z" transform="translate(-8 -2.3)"/><path class="cls-12" d="M10.89,233.06l.56.52Z" transform="translate(-8 -2.3)"/><path class="cls-11" d="M569.42,233.05c.18.19.36.37.53.56Z" transform="translate(-8 -2.3)"/><path class="cls-11" d="M619.26,190l-.54.54Z" transform="translate(-8 -2.3)"/><path class="cls-11" d="M569.93,233.58c.18.19.36.37.55.55C570.29,234,570.11,233.77,569.93,233.58Z" transform="translate(-8 -2.3)"/><path class="cls-11" d="M570.45,234.11l.55.55Z" transform="translate(-8 -2.3)"/><path class="cls-11" d="M571,234.64c.19.18.37.36.55.55C571.34,235,571.16,234.82,571,234.64Z" transform="translate(-8 -2.3)"/><path class="cls-11" d="M571.5,235.16c.18.18.37.36.55.55C571.87,235.52,571.68,235.34,571.5,235.16Z" transform="translate(-8 -2.3)"/><path class="cls-11" d="M572,235.68l.55.54Z" transform="translate(-8 -2.3)"/><path class="cls-11" d="M619.78,189.5l-.53.54Z" transform="translate(-8 -2.3)"/><path class="cls-11" d="M622.4,186.87l-.54.54Z" transform="translate(-8 -2.3)"/><path class="cls-11" d="M574.1,237.28l.57.53Z" transform="translate(-8 -2.3)"/><path class="cls-11" d="M583.64,216.25l-.55-.55Z" transform="translate(-8 -2.3)"/><path class="cls-16" d="M536.58,151.91l-1,.72.42-1.17Z" transform="translate(-8 -2.3)"/><path class="cls-16" d="M503.18,112.28l-.83.48.33-1C502.84,111.93,503,112.1,503.18,112.28Z" transform="translate(-8 -2.3)"/><path class="cls-16" d="M652.86,212.67l1-.08c-.07.31-.15.63-.22.94Z" transform="translate(-8 -2.3)"/></svg>